 <svg  version="1.0" xmlns="http://www.w3.org/2000/svg"  width="900.000000pt" height="1026.000000pt" viewBox="0 0 900.000000 1026.000000"  preserveAspectRatio="xMidYMid meet">  <g transform="translate(0.000000,1026.000000) scale(0.100000,-0.100000)" fill="#1324b2" stroke="none"> <path d="M1700 9775 c-47 -16 -41 -9 -805 -788 -663 -676 -724 -740 -736 -770 -11 -27 -10 -36 16 -86 16 -31 39 -69 51 -86 12 -16 65 -111 117 -210 52 -99 124 -230 159 -290 36 -61 82 -144 102 -185 21 -40 55 -103 76 -140 21 -36 51 -90 68 -120 16 -30 39 -71 50 -90 11 -19 30 -53 42 -75 12 -22 35 -62 50 -90 15 -27 44 -81 64 -120 21 -38 47 -88 60 -110 12 -22 37 -67 56 -100 79 -142 181 -321 190 -335 6 -8 14 -24 19 -36 8 -19 76 -134 101 -174 6 -8 14 -24 19 -36 5 -11 28 -51 50 -88 23 -36 41 -69 41 -72 0 -3 14 -26 30 -51 17 -24 30 -46 30 -48 0 -3 29 -53 64 -112 69 -118 90 -156 235 -425 96 -179 111 -207 167 -318 31 -63 81 -156 110 -205 28 -50 71 -127 94 -170 24 -44 57 -107 75 -140 18 -33 54 -100 80 -150 46 -86 100 -183 257 -463 103 -184 235 -427 301 -557 17 -33 36 -67 43 -75 7 -8 40 -70 74 -138 33 -68 81 -157 105 -198 25 -42 45 -79 45 -82 0 -4 6 -18 13 -32 25 -47 73 -135 124 -225 27 -49 71 -130 98 -180 26 -49 51 -94 55 -100 4 -5 20 -32 35 -60 28 -51 129 -228 146 -255 33 -55 129 -223 129 -227 0 -3 15 -31 34 -62 19 -31 49 -83 66 -116 18 -33 44 -80 58 -105 13 -25 58 -110 99 -190 42 -80 89 -170 106 -200 16 -30 65 -124 109 -208 123 -239 177 -322 207 -322 16 0 71 48 71 63 0 5 8 21 19 35 22 32 48 78 126 227 123 234 137 260 145 270 4 6 37 66 73 135 36 69 81 154 100 190 20 36 52 97 73 135 71 134 94 175 118 214 14 21 32 54 40 72 9 19 29 57 45 84 17 28 40 70 53 95 12 25 30 56 39 70 9 14 36 61 59 105 23 44 54 100 68 125 13 25 44 81 67 125 23 44 57 107 75 140 41 75 94 173 133 245 16 30 42 78 57 105 15 28 49 91 75 140 27 50 59 108 71 130 12 22 34 61 47 86 14 25 35 63 47 85 23 39 63 112 104 189 12 22 34 59 49 82 15 24 27 48 27 55 0 6 6 19 14 27 8 9 44 74 81 146 36 71 71 135 76 141 10 12 32 54 119 221 26 50 57 104 68 120 11 15 34 55 52 88 18 33 49 89 68 125 19 36 46 85 60 110 13 25 41 77 61 115 50 95 108 199 146 265 18 30 66 118 107 195 42 77 86 160 100 185 14 25 39 70 55 100 29 53 111 200 158 285 28 50 76 138 129 235 66 121 68 125 135 243 36 61 81 144 101 182 19 39 43 81 52 95 17 25 73 131 168 315 29 55 55 105 60 110 4 6 22 36 39 68 30 54 53 97 122 225 18 31 50 91 72 132 104 195 161 301 192 355 22 39 75 137 140 261 18 33 45 79 60 102 40 61 39 109 -5 159 -19 21 -55 63 -80 93 -25 30 -86 102 -135 160 -50 58 -102 118 -115 134 -33 40 -157 182 -196 226 -93 105 -146 165 -206 236 -169 200 -278 326 -353 409 -44 50 -91 104 -104 120 -12 17 -56 67 -97 112 -68 75 -79 83 -127 92 -61 13 -2329 32 -4262 37 -1086 2 -1276 1 -1315 -11z m1163 -414 c174 -85 199 -88 297 -36 191 103 249 120 312 94 18 -7 69 -34 113 -60 90 -52 160 -79 209 -79 51 0 133 28 241 82 92 47 106 51 175 52 82 1 99 -4 255 -79 104 -50 148 -58 219 -43 56 12 93 29 146 70 66 50 152 57 230 18 19 -9 75 -38 124 -64 50 -25 98 -46 108 -46 10 0 64 24 120 54 57 29 127 59 156 67 70 17 119 4 236 -63 135 -78 212 -77 343 3 106 65 180 81 268 59 22 -6 90 -35 150 -65 124 -62 187 -78 257 -65 60 12 95 30 132 69 17 17 35 31 42 31 15 0 64 -75 63 -97 0 -18 -87 -66 -180 -99 -97 -34 -237 -16 -332 43 -80 50 -136 65 -222 60 -63 -3 -91 -10 -130 -32 -134 -75 -159 -85 -216 -85 -66 0 -112 15 -229 73 -121 60 -162 59 -295 -8 -92 -46 -105 -50 -170 -49 -67 0 -96 10 -165 54 -48 30 -132 60 -170 60 -36 0 -117 -27 -182 -61 -45 -23 -137 -49 -175 -49 -45 0 -136 31 -160 55 -8 8 -21 15 -29 15 -8 0 -33 12 -56 28 -36 23 -51 27 -117 27 -63 0 -84 -4 -126 -27 -95 -51 -186 -89 -240 -100 -64 -13 -150 -4 -197 21 -71 38 -154 84 -165 93 -7 6 -40 12 -73 15 -62 6 -88 -3 -232 -78 -95 -49 -196 -52 -299 -8 -40 17 -84 40 -99 50 -36 27 -135 52 -174 44 -17 -4 -52 -20 -77 -35 -26 -16 -71 -38 -100 -50 -30 -12 -62 -26 -71 -31 -29 -15 -176 -11 -206 5 -15 8 -52 22 -82 32 -30 9 -61 22 -69 28 -19 15 -81 36 -108 36 -31 0 -36 14 -18 56 8 20 15 47 15 60 0 37 26 30 135 -32 155 -89 234 -110 316 -83 19 7 43 20 54 29 30 26 177 107 205 113 54 11 103 -4 243 -72z m4022 -496 c66 0 180 -2 254 -3 l134 -2 51 -53 c49 -51 173 -181 306 -323 36 -38 81 -91 102 -117 20 -27 62 -76 93 -109 67 -71 64 -85 -16 -69 -63 13 -2630 32 -2666 20 l-22 -8 -4 -1138 c-4 -1101 -5 -1142 -25 -1263 -41 -244 -64 -341 -97 -417 -14 -30 -25 -63 -25 -72 0 -8 -27 -70 -60 -137 -53 -108 -115 -200 -210 -307 -25 -29 -163 -137 -174 -137 -4 0 -24 -12 -45 -26 -21 -14 -97 -41 -167 -61 -126 -34 -131 -35 -274 -31 -130 4 -155 8 -242 37 -109 36 -246 109 -317 168 l-26 21 3 329 c1 180 2 334 2 341 0 17 16 15 75 -7 76 -30 183 -51 253 -51 132 0 215 81 294 288 17 43 22 78 22 142 0 157 0 2144 0 2235 l1 90 -405 6 c-223 4 -902 7 -1510 7 -643 1 -1106 5 -1108 10 -1 5 14 22 35 38 21 16 51 44 67 64 29 33 98 105 401 414 l136 139 2522 -8 c1387 -5 2576 -9 2642 -10z m-5078 -1019 c17 -7 153 -182 240 -311 26 -38 60 -83 75 -100 16 -16 43 -52 60 -80 18 -27 69 -99 114 -160 44 -60 93 -129 108 -152 28 -42 54 -60 66 -46 4 4 15 31 25 58 10 28 28 73 41 101 12 28 32 84 44 125 22 74 41 138 120 384 22 72 47 140 55 152 l15 22 372 -6 c210 -3 377 -9 383 -15 15 -13 16 -2026 1 -2036 -6 -4 -114 -5 -240 -2 l-228 5 1 735 c1 404 -2 747 -6 762 -5 15 -12 29 -16 30 -12 4 -113 -235 -219 -517 -16 -44 -44 -111 -63 -150 -30 -63 -74 -171 -110 -265 -45 -118 -61 -153 -76 -161 -9 -4 -59 -5 -110 -1 l-94 7 -40 61 c-68 104 -119 185 -143 228 -13 22 -36 55 -51 71 -15 17 -44 57 -65 90 -71 109 -99 150 -132 187 -18 20 -42 54 -54 75 -11 21 -49 79 -85 128 -35 50 -81 114 -101 143 -47 68 -97 118 -102 103 -4 -13 7 -45 43 -126 13 -27 26 -61 29 -75 8 -29 21 -58 64 -150 64 -136 92 -199 141 -315 27 -66 72 -165 99 -220 27 -55 53 -111 57 -125 4 -14 23 -57 41 -97 19 -40 34 -76 34 -81 0 -5 11 -25 24 -44 13 -19 36 -66 51 -104 15 -38 38 -92 51 -120 13 -28 24 -56 24 -62 0 -9 -48 -10 -182 -5 -150 5 -185 9 -195 22 -7 9 -35 61 -64 116 -28 55 -61 114 -73 130 -20 27 -52 86 -173 315 -18 35 -40 71 -47 80 -13 15 -55 93 -123 233 -18 37 -51 96 -73 131 -22 35 -40 66 -40 70 0 8 -63 135 -119 238 -77 143 -196 374 -205 398 -5 14 -22 44 -37 67 -16 23 -42 70 -58 105 -16 35 -44 82 -61 106 -17 23 -29 46 -26 50 4 7 1012 5 1033 -2z m4220 -50 c9 -8 13 -210 18 -781 4 -423 8 -776 10 -782 3 -10 11 -10 31 -3 35 14 171 16 385 5 149 -7 191 -5 275 10 177 31 262 54 384 105 36 15 85 35 110 46 61 25 133 69 201 121 30 24 61 43 67 43 17 0 15 -25 -3 -40 -8 -7 -15 -17 -15 -23 0 -5 -11 -24 -24 -41 -21 -28 -102 -176 -176 -323 -14 -29 -33 -60 -42 -70 -8 -10 -22 -31 -30 -48 -29 -58 -141 -260 -152 -274 -9 -12 -64 -13 -336 -7 -179 3 -527 9 -775 12 -256 4 -455 11 -462 16 -9 7 -12 254 -13 1027 0 559 3 1020 7 1025 12 12 526 -5 540 -18z m-3060 -2553 c23 -45 54 -108 67 -140 49 -113 112 -250 133 -285 11 -20 24 -46 28 -59 4 -13 32 -75 61 -137 30 -63 54 -115 54 -118 0 -2 43 -91 95 -198 52 -107 95 -198 95 -202 0 -4 26 -61 59 -128 32 -67 73 -152 90 -191 42 -91 50 -109 112 -240 28 -60 67 -146 86 -189 18 -44 49 -105 68 -137 19 -31 35 -69 35 -84 0 -20 4 -26 18 -23 13 2 20 21 30 73 7 39 26 124 42 190 38 160 55 237 81 378 18 95 26 120 42 129 14 7 109 8 311 4 334 -8 316 -3 336 -104 6 -31 16 -79 21 -107 16 -80 40 -206 49 -255 42 -249 56 -310 71 -310 5 0 13 10 18 23 15 40 214 440 237 478 12 20 115 220 229 445 263 519 285 563 285 573 0 5 8 19 18 32 10 13 26 43 35 66 9 22 34 71 57 107 22 37 40 69 40 72 0 11 133 269 154 299 12 16 26 39 32 50 11 19 22 20 375 20 337 0 364 -1 367 -17 2 -10 -8 -32 -21 -50 -13 -18 -48 -78 -76 -133 -29 -55 -58 -107 -64 -115 -7 -8 -21 -33 -32 -55 -10 -22 -27 -51 -36 -65 -9 -14 -38 -68 -64 -120 -27 -52 -53 -102 -60 -110 -7 -8 -34 -55 -60 -105 -27 -49 -62 -115 -78 -145 -17 -30 -39 -72 -49 -92 -10 -20 -22 -39 -27 -43 -6 -3 -23 -31 -39 -63 -16 -31 -40 -75 -52 -97 -13 -22 -44 -78 -70 -125 -136 -243 -233 -416 -240 -425 -8 -10 -42 -72 -113 -205 -22 -41 -50 -92 -63 -112 -33 -52 -108 -186 -167 -298 -27 -52 -69 -127 -93 -166 -24 -39 -44 -74 -44 -78 0 -3 -11 -24 -24 -45 -13 -20 -43 -74 -66 -119 -22 -45 -45 -84 -51 -88 -5 -3 -27 -40 -49 -82 -22 -42 -54 -102 -71 -132 -17 -30 -40 -73 -52 -95 -11 -22 -26 -47 -33 -55 -12 -15 -33 -52 -99 -175 -20 -38 -42 -76 -47 -83 -14 -16 -122 -16 -136 1 -6 7 -13 41 -17 77 -4 36 -16 112 -27 170 -11 58 -28 152 -38 208 -11 57 -26 125 -34 150 -8 26 -33 135 -55 242 -22 107 -45 212 -53 233 -24 72 -34 54 -83 -153 -14 -58 -34 -136 -45 -175 -11 -38 -25 -92 -30 -120 -5 -27 -16 -81 -25 -120 -9 -38 -23 -104 -31 -145 -9 -41 -26 -124 -40 -185 -14 -60 -28 -126 -32 -145 l-7 -35 -59 0 -60 0 -34 60 c-19 33 -56 96 -82 140 -26 44 -66 118 -90 165 -23 47 -48 92 -55 100 -7 8 -22 33 -34 55 -12 22 -37 67 -55 100 -19 33 -46 83 -60 110 -14 28 -30 57 -35 65 -36 57 -134 234 -169 305 -14 28 -62 113 -107 191 -46 77 -101 176 -122 220 -22 43 -59 110 -82 148 -24 38 -47 79 -52 90 -4 12 -24 48 -44 81 -19 33 -48 88 -65 122 -16 34 -34 64 -39 67 -8 6 -124 217 -175 321 -10 22 -25 47 -32 55 -6 8 -34 58 -61 110 -78 150 -133 249 -178 325 -24 39 -62 109 -85 155 -23 46 -62 118 -87 160 -56 96 -57 97 -115 210 -27 52 -63 112 -79 133 -17 20 -28 41 -24 46 3 6 171 9 402 8 l398 -2 42 -82z"/> </g> </svg> 